<svg width="45" height="45" viewBox="0 0 45 45" fill="none" xmlns="http://www.w3.org/2000/svg">
<rect width="45" height="45" rx="22.5" fill="white"/>
<path d="M13.05 30.373H14.1V16.9304C14.1 16.5955 14.2041 16.2692 14.3974 15.9976C14.5908 15.7259 14.8636 15.5228 15.1773 15.417L23.5773 12.5817C23.814 12.5019 24.0661 12.4801 24.3128 12.5183C24.5594 12.5564 24.7936 12.6534 24.996 12.8012C25.1984 12.949 25.3633 13.1434 25.477 13.3683C25.5907 13.5933 25.65 13.8424 25.65 14.0951V30.373H26.7V20.7909C26.7 20.7122 26.7173 20.6346 26.7506 20.5635C26.7838 20.4925 26.8322 20.4297 26.8923 20.3799C26.9523 20.3301 27.0225 20.2943 27.0979 20.2753C27.1732 20.2562 27.2518 20.2544 27.3279 20.2698L29.6337 20.7377C29.9906 20.81 30.3118 21.0052 30.5427 21.2902C30.7735 21.5752 30.8998 21.9324 30.9 22.3011V30.373H31.95C32.2285 30.373 32.4955 30.4851 32.6925 30.6845C32.8894 30.8839 33 31.1544 33 31.4365C33 31.7186 32.8894 31.9891 32.6925 32.1885C32.4955 32.388 32.2285 32.5 31.95 32.5H13.05C12.7715 32.5 12.5045 32.388 12.3075 32.1885C12.1106 31.9891 12 31.7186 12 31.4365C12 31.1544 12.1106 30.8839 12.3075 30.6845C12.5045 30.4851 12.7715 30.373 13.05 30.373Z" fill="#09AB8A"/>
</svg>
