<svg width="45" height="45" viewBox="0 0 45 45" fill="none" xmlns="http://www.w3.org/2000/svg">
<rect width="45" height="45" rx="22.5" fill="white"/>
<path d="M22.5 12.5C21.136 12.5 19.8279 13.0268 18.8635 13.9645C17.899 14.9021 17.3571 16.1739 17.3571 17.5C17.3571 18.8261 17.899 20.0979 18.8635 21.0355C19.8279 21.9732 21.136 22.5 22.5 22.5C23.864 22.5 25.1721 21.9732 26.1365 21.0355C27.101 20.0979 27.6429 18.8261 27.6429 17.5C27.6429 16.1739 27.101 14.9021 26.1365 13.9645C25.1721 13.0268 23.864 12.5 22.5 12.5ZM16.083 23.75C15.7443 23.7485 15.4087 23.8121 15.0954 23.9371C14.7821 24.062 14.4972 24.2459 14.2572 24.4782C14.0172 24.7105 13.8268 24.9866 13.6968 25.2907C13.5669 25.5947 13.5 25.9207 13.5 26.25C13.5 28.3638 14.571 29.9575 16.245 30.9963C17.8933 32.0175 20.115 32.5 22.5 32.5C24.885 32.5 27.1067 32.0175 28.755 30.9963C30.429 29.9588 31.5 28.3625 31.5 26.25C31.5 25.587 31.2291 24.9511 30.7468 24.4822C30.2646 24.0134 29.6106 23.75 28.9286 23.75H16.083Z" fill="#09AB8A"/>
</svg>
