<svg width="45" height="45" viewBox="0 0 45 45" fill="none" xmlns="http://www.w3.org/2000/svg">
<rect width="45" height="45" rx="22.5" fill="white"/>
<path d="M22.5 12C20.4233 12 18.3932 12.6158 16.6665 13.7696C14.9398 14.9233 13.594 16.5632 12.7993 18.4818C12.0045 20.4004 11.7966 22.5116 12.2018 24.5484C12.6069 26.5852 13.6069 28.4562 15.0754 29.9246C16.5438 31.3931 18.4148 32.3931 20.4516 32.7982C22.4884 33.2034 24.5996 32.9955 26.5182 32.2007C28.4368 31.406 30.0767 30.0602 31.2304 28.3335C32.3842 26.6068 33 24.5767 33 22.5C33 19.7152 31.8938 17.0445 29.9246 15.0754C27.9555 13.1062 25.2848 12 22.5 12ZM27.5203 26.1684C26.8641 28.1372 25.1513 28.6884 23.6484 28.7934V30.1059C23.6484 30.3235 23.562 30.5321 23.4082 30.686C23.2543 30.8398 23.0457 30.9262 22.8281 30.9262C22.6106 30.9262 22.4019 30.8398 22.2481 30.686C22.0942 30.5321 22.0078 30.3235 22.0078 30.1059V28.7934C20.5008 28.6521 19.0715 28.0598 17.9063 27.0937C17.8274 27.0201 17.7638 26.9316 17.7192 26.8333C17.6745 26.7351 17.6497 26.629 17.646 26.5211C17.6423 26.4133 17.66 26.3057 17.6979 26.2047C17.7358 26.1036 17.7932 26.011 17.8669 25.9322C17.9406 25.8533 18.0291 25.7898 18.1273 25.7451C18.2256 25.7005 18.3316 25.6756 18.4395 25.6719C18.5474 25.6683 18.6549 25.6859 18.7559 25.7238C18.857 25.7617 18.9496 25.8191 19.0284 25.8928C19.8871 26.5847 20.9206 27.0254 22.0144 27.1659V23.0447C21.1427 22.911 20.3087 22.5957 19.5666 22.1194C18.9425 21.728 18.4753 21.1302 18.2463 20.43C18.0173 19.7298 18.0409 18.9714 18.3131 18.2869C18.7003 17.2959 19.9013 16.1672 22.0144 15.9834V14.7891C22.0144 14.5715 22.1008 14.3629 22.2546 14.209C22.4085 14.0552 22.6171 13.9687 22.8347 13.9687C23.0523 13.9687 23.2609 14.0552 23.4147 14.209C23.5686 14.3629 23.655 14.5715 23.655 14.7891V16.0097C24.8281 16.1396 25.9417 16.5942 26.8706 17.3222C26.9994 17.4737 27.0687 17.6668 27.0658 17.8656C27.0629 18.0644 26.9878 18.2553 26.8547 18.4029C26.7215 18.5505 26.5392 18.6448 26.3418 18.6681C26.1443 18.6914 25.9452 18.6422 25.7813 18.5297C25.1547 18.0714 24.424 17.776 23.655 17.67V21.6928C24.0488 21.7781 24.4688 21.87 24.9084 22.0078C25.417 22.1346 25.8943 22.3642 26.3107 22.6825C26.7272 23.0008 27.0741 23.401 27.33 23.8584C27.6955 24.5732 27.7639 25.4035 27.5203 26.1684Z" fill="#09AB8A"/>
<path d="M24.4163 23.5763C24.1538 23.4975 23.8978 23.4319 23.6484 23.3794V27.1594C24.9609 27.0281 25.6631 26.5688 25.965 25.65C26.0656 25.3045 26.0304 24.9336 25.8666 24.6131C25.7061 24.3524 25.4952 24.1263 25.2461 23.9482C24.997 23.7702 24.7149 23.6437 24.4163 23.5763Z" fill="#09AB8A"/>
<path d="M19.8352 18.8775C19.6983 19.2177 19.6893 19.5961 19.81 19.9424C19.9307 20.2887 20.1728 20.5795 20.4915 20.761C20.9552 21.0587 21.4722 21.2637 22.014 21.3647V17.611C20.6359 17.775 19.9993 18.4575 19.8352 18.8775Z" fill="#09AB8A"/>
</svg>
