<svg width="45" height="45" viewBox="0 0 45 45" fill="none" xmlns="http://www.w3.org/2000/svg">
<rect width="45" height="45" rx="22.5" fill="white"/>
<path d="M28.5103 14.9261C25.1909 11.6913 19.8091 11.6913 16.4897 14.9261C15.7016 15.6889 15.0754 16.6 14.6478 17.606C14.2203 18.612 14 19.6925 14 20.7841C14 21.8756 14.2203 22.9561 14.6478 23.9621C15.0754 24.9681 15.7016 25.8792 16.4897 26.642L22.4995 32.5L28.5103 26.642C29.2984 25.8792 29.9246 24.9681 30.3522 23.9621C30.7797 22.9561 31 21.8756 31 20.7841C31 19.6925 30.7797 18.612 30.3522 17.606C29.9246 16.6 29.2984 15.6889 28.5103 14.9261ZM22.4995 23.5525C21.7897 23.5525 21.1235 23.2788 20.6209 22.782C20.1234 22.288 19.8439 21.6187 19.8439 20.9209C19.8439 20.2231 20.1234 19.5538 20.6209 19.0598C21.1224 18.563 21.7897 18.2893 22.4995 18.2893C23.2092 18.2893 23.8765 18.563 24.378 19.0598C24.8756 19.5538 25.155 20.2231 25.155 20.9209C25.155 21.6187 24.8756 22.288 24.378 22.782C23.8765 23.2788 23.2092 23.5525 22.4995 23.5525Z" fill="#09AB8A"/>
</svg>
