<svg width="45" height="45" viewBox="0 0 45 45" fill="none" xmlns="http://www.w3.org/2000/svg">
<rect width="45" height="45" rx="22.5" fill="white"/>
<path fill-rule="evenodd" clip-rule="evenodd" d="M14 16.8V18H12.8C12.3226 18 11.8648 18.1896 11.5272 18.5272C11.1896 18.8648 11 19.3226 11 19.8V28.2C11 28.6774 11.1896 29.1352 11.5272 29.4728C11.8648 29.8104 12.3226 30 12.8 30H29.2C29.4364 30 29.6704 29.9534 29.8888 29.863C30.1072 29.7725 30.3056 29.6399 30.4728 29.4728C30.6399 29.3056 30.7725 29.1072 30.863 28.8888C30.9534 28.6704 31 28.4364 31 28.2V27H32.2C33.192 27 34 26.192 34 25.2V16.8C34 15.808 33.192 15 32.2 15H15.8C14.808 15 14 15.808 14 16.8ZM16 17V18H29.2C29.4364 18 29.6704 18.0466 29.8888 18.137C30.1072 18.2275 30.3056 18.3601 30.4728 18.5272C30.6399 18.6944 30.7725 18.8928 30.863 19.1112C30.9534 19.3296 31 19.5636 31 19.8V25H32V17H16ZM19 24C19 23.4696 19.2107 22.9609 19.5858 22.5858C19.9609 22.2107 20.4696 22 21 22C21.5304 22 22.0391 22.2107 22.4142 22.5858C22.7893 22.9609 23 23.4696 23 24C23 24.5304 22.7893 25.0391 22.4142 25.4142C22.0391 25.7893 21.5304 26 21 26C20.4696 26 19.9609 25.7893 19.5858 25.4142C19.2107 25.0391 19 24.5304 19 24Z" fill="#09AB8A"/>
</svg>
