<svg width="45" height="45" viewBox="0 0 45 45" fill="none" xmlns="http://www.w3.org/2000/svg">
<rect width="45" height="45" rx="22.5" fill="white"/>
<path d="M32.5 24.6125C32.5 25.1 31.5 25.425 30.3333 25.5875C29.5833 24.2063 28.0833 23.15 26.3333 22.4187C26.5 22.175 26.6667 22.0125 26.8333 21.7688H27.5C30.0833 21.6875 32.5 23.2313 32.5 24.6125ZM18.1667 21.6875H17.5C14.9167 21.6875 12.5 23.2313 12.5 24.6125C12.5 25.1 13.5 25.425 14.6667 25.5875C15.4167 24.2063 16.9167 23.15 18.6667 22.4187L18.1667 21.6875ZM22.5 22.5C24.3333 22.5 25.8333 21.0375 25.8333 19.25C25.8333 17.4625 24.3333 16 22.5 16C20.6667 16 19.1667 17.4625 19.1667 19.25C19.1667 21.0375 20.6667 22.5 22.5 22.5ZM22.5 23.3125C19.0833 23.3125 15.8333 25.425 15.8333 27.375C15.8333 29 22.5 29 22.5 29C22.5 29 29.1667 29 29.1667 27.375C29.1667 25.425 25.9167 23.3125 22.5 23.3125ZM27.25 20.875H27.5C28.9167 20.875 30 19.8188 30 18.4375C30 17.0562 28.9167 16 27.5 16C27.0833 16 26.75 16.0813 26.4167 16.2438C27.0833 17.0563 27.5 18.1125 27.5 19.25C27.5 19.8187 27.4167 20.3875 27.25 20.875ZM17.5 20.875H17.75C17.5833 20.3875 17.5 19.8187 17.5 19.25C17.5 18.1125 17.9167 17.0563 18.5833 16.2438C18.25 16.0813 17.9167 16 17.5 16C16.0833 16 15 17.0562 15 18.4375C15 19.8188 16.0833 20.875 17.5 20.875Z" fill="#09AB8A"/>
</svg>
